PathFileType	4	(X/Y/Z)	C:\Users\WrightLab\Desktop\Jo\P3_12.trc
DataRate	CameraRate	NumFrames	NumMarkers	Units	OrigDataRate	OrigDataStartFrame	OrigNumFrames
100.00	100.00	       19	19	mm	100.00	223	       593
Frame#	Time	Headset_Front			Headset_Back			Headset_Left			Headset_Right			Left_Shoulder			Right_Shoulder			Sternum			C7			Left Elbow			Right Elbow			Left Wrist			Right Wrist			Left ASIS			Right ASIS			S2			Left Knee			Right Knee			Left Ankle			Right Ankle			
		X1	Y1	Z1	X2	Y2	Z2	X3	Y3	Z3	X4	Y4	Z4	X5	Y5	Z5	X6	Y6	Z6	X7	Y7	Z7	X8	Y8	Z8	X9	Y9	Z9	X10	Y10	Z10	X11	Y11	Z11	X12	Y12	Z12	X13	Y13	Z13	X14	Y14	Z14	X15	Y15	Z15	X16	Y16	Z16	X17	Y17	Z17	X18	Y18	Z18	X19	Y19	Z19	

223	2.220	-259.18671	1457.07251	554.78528	-181.01060	1623.76196	794.87805	-314.93478	1549.08008	735.23871				-317.61533	1333.89551	886.25299	-11.85820	1349.47864	700.94232	-232.55612	1219.52869	688.31104	-137.22015	1396.40430	832.27515	-372.21066	1000.21606	923.24146	85.02337	1011.17218	655.16718	-431.97943	826.88672	821.29022	0.85604	880.67078	482.63385	-279.90408	856.17462	778.01935				-55.15469	945.63531	868.42926	-162.52567	450.65359	886.40491	-115.68533	467.39508	548.10785	-54.68135	145.68422	971.05316	-152.93077	142.97096	480.26419	
224	2.230	-262.30322	1455.44080	546.57159	-185.05508	1621.98193	786.93219	-318.72400	1547.61414	726.53821	-132.53320	1515.29834	599.23773	-320.62286	1331.93286	878.52704	-15.91124	1347.57568	691.73309	-237.04298	1217.74719	679.93378	-141.22751	1393.84814	823.48248	-376.04254	998.06830	913.97058	80.43433	1008.78387	643.37012	-438.18353	826.48816	810.86932	-4.86344	880.76672	469.96976	-283.76483	854.55658	769.27393				-58.06921	944.07678	858.73267	-164.98392	450.30948	881.83905	-120.49887	466.05511	540.94885	-56.04283	147.07111	970.36835	-163.37950	143.42795	468.89868	
225	2.240	-264.15479	1453.05225	537.89703	-188.34538	1620.23157	778.79047	-322.20239	1546.02588	718.27759	-135.63892	1513.76489	591.96832	-323.89792	1329.86560	870.41748	-19.77700	1345.86230	682.74835	-240.80930	1216.23328	671.28510	-144.97023	1392.12720	815.73163	-381.05688	996.55951	904.82544	75.41248	1007.10315	631.57178	-443.03189	825.34845	801.27429	-9.71822	881.29675	456.16852	-288.14999	853.20282	761.25586				-61.42148	942.48511	848.87109	-168.18167	450.44254	877.14886	-125.62550	464.22089	533.83899	-57.00305	148.11319	969.16779	-172.70178	142.39618	458.47568	
226	2.250	-268.17905	1452.90149	529.43750	-191.89647	1619.02979	770.58630	-324.86801	1544.23511	709.66260	-138.57835	1511.87268	585.42413	-327.35059	1328.31030	862.19971	-23.50542	1343.67371	673.79358	-245.30289	1215.21118	662.89154	-147.48500	1390.42163	807.03638	-385.32706	994.16046	895.84772	70.22427	1005.04547	619.20734	-448.31857	824.13031	791.69934	-14.53860	881.75354	442.23843	-292.13983	851.57709	752.10272				-64.95383	940.48779	839.22736	-170.94823	449.01852	871.22894	-131.33049	462.44159	525.47449	-58.02480	149.24110	967.96094	-179.71968	141.21701	450.60254	
227	2.260	-271.50098	1451.45068	520.97107	-194.55099	1617.22729	762.12036	-328.48242	1543.22400	700.99298	-141.95793	1510.63147	576.56995	-330.93457	1326.32495	854.18909	-27.37097	1342.09717	664.99701	-249.17876	1213.50403	653.50751	-151.55557	1388.41553	797.43512	-389.65387	992.54584	886.64282	65.17442	1003.80627	607.54913	-453.74060	823.09424	782.33704	-20.26964	882.90552	429.64838	-296.89777	850.11407	743.55658				-68.47603	938.55371	829.11798	-174.57210	448.39554	865.11932	-136.72495	461.37384	516.98358	-59.16570	150.48981	966.71973	-186.17314	138.26340	445.11963	
228	2.270	-274.69958	1450.46167	512.39514	-199.10793	1616.19751	754.10815	-332.81992	1542.66846	692.54211	-145.21953	1509.53381	567.83960	-334.40961	1324.66382	846.00024	-31.38334	1340.57446	655.81683	-253.81551	1212.56714	644.45459	-155.33183	1386.66565	789.02753	-393.79584	990.88354	877.82324	60.47372	1002.12903	594.74542	-458.69577	821.74963	773.09125	-24.67430	883.18182	415.62088	-301.38583	848.12738	733.83588				-72.38280	936.75635	819.31989	-178.75333	448.74475	860.29657	-142.65865	459.28745	508.62970	-61.20683	152.23605	965.25269	-190.90047	135.25533	440.59622	
229	2.280	-278.35611	1449.88074	503.95908	-201.97473	1614.45667	745.55750	-336.19116	1541.36133	684.08948	-148.88693	1508.50476	559.09528	-338.08429	1322.70435	837.17133	-35.27842	1338.96008	647.15094	-257.87701	1211.80420	635.12476	-159.13591	1384.92126	780.41742	-397.82147	989.22980	868.92133	55.34862	1000.75354	583.12286	-462.90192	820.25043	763.07452	-30.01971	884.18250	402.57938	-306.02673	846.57050	724.42169				-77.27255	935.52271	809.43518	-182.40720	447.03036	852.58521	-149.40425	458.43115	499.32568	-62.94950	153.54413	963.68500	-195.10588	131.75166	438.42429	
230	2.290	-281.59735	1449.08386	494.92645	-205.72647	1613.35120	737.22266	-339.56308	1540.18799	675.15942	-152.29279	1507.63928	550.27777	-341.79706	1321.25513	828.00354	-38.98873	1337.48877	638.44330	-261.78311	1210.74780	625.81830	-162.83530	1383.99170	771.54285	-402.23721	987.30011	859.19128	49.83773	999.51855	571.21747	-467.76361	819.33466	754.78467	-34.55448	885.17426	389.27689	-310.45172	845.20087	714.31635				-83.61684	934.08514	799.23981	-186.77696	445.92688	845.31268	-156.46962	456.24060	491.07285	-63.77875	154.44403	961.02063	-197.91362	127.58807	436.49286	
231	2.300	-285.18057	1448.73071	485.01123	-209.72380	1611.97522	729.15826	-342.79910	1539.50574	666.23627	-155.78130	1506.73645	542.35321	-345.44382	1319.68347	818.71820	-42.86884	1336.25256	629.22058	-266.33658	1210.08240	615.98425	-166.79422	1382.13574	762.13666	-407.05676	986.79395	849.68884	45.19064	999.16071	558.95367	-472.18524	818.02386	745.01776	-39.62292	885.81555	376.53662	-315.24725	843.91589	704.15076				-87.31904	933.05090	789.97980	-191.45589	444.99802	837.49121	-163.12630	454.04099	482.48773	-66.15610	156.81456	958.68591	-201.07141	124.08865	434.06415	
232	2.310	-288.56766	1448.21387	476.84256	-212.96657	1611.04370	720.40729	-346.21005	1538.71387	657.07745	-159.33951	1506.16223	533.45374	-349.66531	1318.79163	809.93768	-47.05157	1335.35754	619.93518	-270.02142	1208.93323	606.36627	-170.71672	1381.40381	753.67212	-410.62027	985.30481	840.78497	40.43413	998.59735	546.69672	-476.65836	816.70270	736.30347	-44.20867	887.19025	362.87466	-320.41309	842.46326	693.76202				-92.52369	931.30896	779.70117	-196.71440	443.74734	829.10529	-169.24521	452.54196	473.92557	-68.59035	159.11296	956.28571	-206.52429	122.74242	429.09863	
233	2.320	-292.11838	1448.59631	467.00143	-217.75549	1610.50232	711.92395	-351.36462	1538.40747	648.22748	-162.99782	1505.92712	524.02411	-353.62863	1317.77808	800.32031	-50.90583	1334.64587	610.26715	-274.42609	1209.00452	596.51367	-174.37572	1380.75317	744.81262	-414.72812	984.24622	831.86414	35.23991	997.97150	535.56592	-480.72226	815.43292	727.47986	-49.02478	888.80048	349.32660	-325.32318	841.35284	683.36859				-98.45882	929.48822	769.58307	-202.13603	442.43399	819.26959	-175.26025	451.56940	464.48907	-72.18792	162.18924	953.11523	-210.57074	121.10159	424.98935	
234	2.330	-295.61572	1448.30835	458.08505	-220.92506	1609.74695	702.91852	-354.29025	1538.25342	638.76514	-166.72546	1505.60107	516.25098	-357.73471	1317.40186	790.84454	-54.59716	1334.11365	600.99249	-278.42853	1209.40979	586.36951	-177.74808	1380.17651	734.59430	-418.03125	983.27435	822.57056	30.44871	997.48590	523.26312	-484.35635	814.62958	718.83075	-53.80587	890.12653	336.01953	-330.20090	840.38867	672.57458				-103.87081	928.46637	759.63245	-207.77925	440.62527	809.37701	-180.56877	451.21994	456.70425	-74.37900	164.53404	949.31348	-213.15536	120.10120	421.56268	
235	2.340	-299.31143	1448.50110	448.66028	-226.23997	1610.59644	693.96301	-359.03268	1538.21545	629.41113	-170.51695	1505.96582	506.95029	-361.81418	1317.06140	780.91504	-58.41819	1333.49939	591.67615	-282.59448	1209.22388	576.68347	-182.50743	1380.16040	725.65564	-421.81326	983.39478	813.08533	25.73816	997.66040	511.01224	-488.21432	813.85120	709.67950	-57.81638	891.61176	323.07248	-335.60599	839.91833	661.73022	-142.89064	863.43848	502.52222	-110.25033	927.28571	749.59015	-215.04970	439.65811	798.99750	-185.74626	452.51877	448.46652	-77.31179	167.90231	944.60419	-215.14944	118.78894	418.62982	
236	2.350	-303.18350	1448.98083	439.31592	-229.33820	1610.26099	684.53009	-363.29074	1538.88330	620.05920	-174.48309	1506.42419	499.18274	-365.47867	1317.27991	771.47845	-62.48545	1333.49170	581.94580	-286.67688	1210.18445	567.23376	-186.15880	1380.67944	716.63269	-426.04950	983.82794	803.45996	20.57618	997.69562	499.24332	-491.98257	813.44739	701.52356	-62.78773	893.76355	310.04001	-340.91953	839.18170	650.83282				-116.33599	927.72577	739.42584	-222.36830	437.87668	786.82416	-192.09090	453.89749	440.43753	-81.89548	171.26392	939.56470	-216.71739	118.00389	415.75467	
237	2.360	-307.31317	1449.81897	430.09506	-234.52420	1611.59644	675.40454	-367.48502	1539.36768	610.58838	-178.34212	1507.48755	488.75922	-370.38132	1318.40784	761.98187	-66.49346	1333.70496	572.97302	-291.09183	1210.85010	557.25037	-189.90636	1381.20923	706.85803	-429.36990	983.91412	793.88068	15.78670	998.12958	486.76587	-495.06155	813.56366	693.66907	-66.65740	895.76617	296.94846	-346.31378	839.08563	640.34283				-121.46973	928.19098	729.92859	-230.99750	436.77744	775.14917	-198.91937	455.07645	431.78003	-86.12067	175.31754	933.86194	-218.60754	118.01680	412.60190	
238	2.370	-311.09268	1450.99597	420.36844	-238.54289	1612.62415	665.72931	-371.86853	1540.37549	601.20673	-182.70705	1508.57483	478.64224	-374.57211	1319.33545	752.14099	-70.47184	1334.69348	563.71631	-295.21832	1212.40381	547.60712	-193.91103	1381.89783	697.52637	-432.76178	985.12854	784.36371	10.68538	999.59363	475.08606	-497.70905	813.10095	685.25732	-71.31067	897.28314	285.42511	-351.68649	839.38818	629.18848				-127.37366	928.56000	720.80756	-241.71506	435.82947	763.19055	-204.95668	455.87686	423.02173	-91.18838	179.46402	926.84351	-219.82721	118.60704	410.03256	
239	2.380	-314.78293	1451.54663	410.55298	-243.45573	1613.89319	656.57623	-375.58932	1541.41711	591.30414	-186.20424	1509.33569	470.05371	-378.97208	1320.75928	743.23291	-75.02285	1335.69312	554.47784	-299.34073	1213.80640	537.76422	-198.38351	1383.29578	688.45813	-436.94000	986.42810	774.76465	5.66864	1000.59113	463.72491	-500.92593	813.82886	676.85529	-75.09872	900.34576	271.95978	-356.85693	840.05219	618.67010				-134.07910	929.52008	711.51123	-251.47707	433.41464	749.87299	-209.96188	456.25394	414.74380	-96.65155	183.48830	918.34680	-221.44298	118.27674	408.00104	
240	2.390	-319.13901	1452.65393	401.71094	-246.01628	1614.90100	646.65173	-379.99982	1542.49329	582.48407	-190.89493	1511.05396	459.71225	-383.12256	1322.54004	733.46539	-79.42825	1336.37366	545.24902	-304.15305	1215.31018	528.62415	-202.85945	1384.56165	679.58594	-440.04330	988.05280	765.47516	0.86294	1002.91943	452.12619	-504.31857	814.70630	667.99274	-78.73904	902.58704	260.56836	-362.60126	841.39917	607.77991				-140.16742	930.56482	702.14484	-262.94492	431.92224	736.44348	-214.53049	456.95566	407.93796	-104.28409	188.64702	910.64301	-222.88326	118.16604	406.03622	
241	2.400	-322.77081	1453.73718	392.28513	-251.13748	1616.52454	637.59833	-383.68628	1543.32056	572.94067	-194.48262	1512.11682	450.79922	-387.72614	1324.43896	724.21771	-83.87213	1337.63220	536.18964	-308.78381	1217.32605	519.07086	-207.19511	1385.57629	670.02429	-443.60208	990.12000	756.14587	-3.85955	1004.26111	440.19345	-506.51559	815.61053	660.79651	-83.12511	905.68335	248.27513	-367.64996	842.74310	597.36139	-175.16399	874.89587	437.94284	-146.67250	931.50677	692.46277	-275.77826	430.76974	722.72394	-218.12410	457.54175	402.60312	-111.07400	193.36613	900.74792	-223.68690	118.33382	403.64514	
